REM GENRE "Progressive Rock"
REM DATE 1985
REM DISCID 5F0A7908
REM COMMENT "ExactAudioCopy v0.95b4"
PERFORMER "Rush"
TITLE "Power Windows"
FILE "Rush - Power Windows.wav" WAVE
  TRACK 01 AUDIO
    TITLE "The Big Money"
    PERFORMER "Rush"
    INDEX 01 00:00:00
  TRACK 02 AUDIO
    TITLE "Grand Designs"
    PERFORMER "Rush"
    INDEX 01 05:37:02
  TRACK 03 AUDIO
    TITLE "Manhattan Project"
    PERFORMER "Rush"
    INDEX 01 10:43:40
  TRACK 04 AUDIO
    TITLE "Marathon"
    PERFORMER "Rush"
    INDEX 00 15:50:70
    INDEX 01 15:51:07
  TRACK 05 AUDIO
    TITLE "Territories"
    PERFORMER "Rush"
    INDEX 01 22:00:55
  TRACK 06 AUDIO
    TITLE "Middletown Dreams"
    PERFORMER "Rush"
    INDEX 01 28:21:22
  TRACK 07 AUDIO
    TITLE "Emotion Detector"
    PERFORMER "Rush"
    INDEX 01 33:36:50
  TRACK 08 AUDIO
    TITLE "Mystic Rhythms"
    PERFORMER "Rush"
    INDEX 01 38:47:62
